<?xml version="1.0" encoding="UTF-8"?>
<svg id="Layer_1" xmlns="http://www.w3.org/2000/svg" xmlns:xlink="http://www.w3.org/1999/xlink" version="1.1" viewBox="0 0 185 52">
  <!-- Generator: Adobe Illustrator 29.2.1, SVG Export Plug-In . SVG Version: 2.1.0 Build 116)  -->
  <defs>
    <style>
      .st0 {
        fill: none;
      }

      .st1 {
        fill: #fff;
      }

      .st2 {
        clip-path: url(#clippath);
      }
    </style>
    <clipPath id="clippath">
      <rect class="st0" width="132.6" height="45"/>
    </clipPath>
  </defs>
  <path class="st1" d="M131,45h-1.5v-11.6h1.5v11.6ZM139.4,38.7v-5.3h1.4v11.6h-1.4v-1.3c-.5.9-1.6,1.5-2.7,1.5-2.4,0-3.8-1.8-3.8-4s1.4-4,3.8-4,2.2.6,2.7,1.6ZM136.9,43.9c1.7,0,2.6-1.2,2.6-2.7s-.9-2.7-2.6-2.7-2.5,1.2-2.5,2.7,1,2.7,2.5,2.7ZM150,40.8c0,.3,0,.5,0,.8h-5.9c0,1.5.9,2.3,2.4,2.3s1.7-.4,2-1.1h1.4c-.3,1.4-1.7,2.4-3.5,2.4s-3.8-1.6-3.8-4,1.5-4,3.8-4,3.6,1.5,3.6,3.6ZM144.1,40.5h4.5c0-1.3-.8-2.2-2.2-2.2s-2.2.9-2.3,2.2ZM153.4,45h-1.4v-7.6h1.4v1.4c.4-1,1.3-1.6,2.7-1.6s2.8,1.1,2.8,3.1v4.7h-1.4v-4.1c0-1.7-.6-2.5-1.9-2.5s-2.1,1-2.1,2.5v4ZM164.2,43.8c.3,0,.7,0,1,0v1.3c-.3,0-.8.1-1.3.1-.9,0-2.3-.2-2.3-2.6v-3.9h-1.4v-1.2h1.4v-2.4h1.4v2.4h1.9v1.2h-1.9v3.6c0,1.5.5,1.7,1.2,1.7ZM167.6,36.1c-.7,0-1.2-.5-1.2-1.2s.5-1.2,1.2-1.2,1.2.5,1.2,1.2-.5,1.2-1.2,1.2ZM168.3,45h-1.4v-7.6h1.4v7.6ZM174,43.8c.3,0,.7,0,1,0v1.3c-.3,0-.8.1-1.3.1-.9,0-2.3-.2-2.3-2.6v-3.9h-1.4v-1.2h1.4v-2.4h1.4v2.4h1.9v1.2h-1.9v3.6c0,1.5.5,1.7,1.2,1.7ZM182.2,41.3v-3.9h1.4v7.8c0,1.2-.4,2.1-1,2.7-.6.5-1.5.8-2.5.8s-2-.3-2.6-.8c-.5-.5-.8-1.1-.9-2h1.4c0,.9.6,1.6,2,1.6s2.1-.7,2.1-2.5v-1.4c-.4.9-1.4,1.6-2.6,1.6-2,0-2.9-1.3-2.9-3.3v-4.5h1.4v4.2c0,1.4.4,2.3,1.9,2.3s2.2-1.2,2.2-2.6Z"/>
  <g class="st2">
    <g>
      <path class="st1" d="M0,44.9C4.6,29.9,9.2,15,13.8,0h12.1c4.6,15,9.2,29.9,13.9,44.9h-13.7l-6.1-36.1c-2.1,12.1-4.3,24.1-6.5,36.2-4.5,0-9,0-13.5-.1Z"/>
      <path class="st1" d="M63.9,20.5c.7-1,3.2-4.6,2.5-9.4C65.7,5.9,61.5,1.5,55.7,0h-14.2v44.7h16.9c5.8-1.2,10.1-5.8,10.9-11.4.7-4.9-1.4-9.8-5.5-12.8ZM50,8.6h4.1c2.5.4,4.2,2.5,4.1,4.8-.1,1.9-1.5,3.5-3.5,4.1h-4.7v-8.8ZM57.2,36.1h-7.1v-9.2h6.5c2.4.4,4.2,2.5,4.1,4.8,0,2-1.5,3.8-3.5,4.4Z"/>
      <path class="st1" d="M94.8,20.5c.7-1,3.2-4.6,2.5-9.4C96.7,5.9,92.4,1.5,86.6,0h-14.2v44.7h16.9c5.8-1.2,10.1-5.8,10.9-11.4.7-4.9-1.4-9.8-5.5-12.8ZM81,8.6h4.1c2.5.4,4.2,2.5,4.1,4.8-.1,1.9-1.5,3.5-3.5,4.1h-4.7v-8.8ZM88.2,36.1h-7.1v-9.2h6.5c2.4.4,4.2,2.5,4.1,4.8,0,2-1.5,3.8-3.5,4.4Z"/>
      <path class="st1" d="M96,0h12.9c1.8,7.8,3.7,15.5,5.5,23.3,1.8-7.8,3.7-15.5,5.5-23.3h12.7c-4.4,10-8.8,20-13.3,30v15h-10v-14.7c-4.4-10.1-8.8-20.2-13.3-30.3Z"/>
    </g>
  </g>
</svg>